<?xml version="1.0" encoding="utf-8"?>
<!-- Generator: Adobe Illustrator 27.1.1, SVG Export Plug-In . SVG Version: 6.00 Build 0)  -->
<svg version="1.1" id="Layer_1" xmlns="http://www.w3.org/2000/svg" xmlns:xlink="http://www.w3.org/1999/xlink" x="0px" y="0px"
	 viewBox="0 0 1366 768" style="enable-background:new 0 0 1366 768;" xml:space="preserve">
<g>
	<path d="M841.74,340.63c-0.25-2.43-0.57-4.85-0.75-7.29c-0.36-4.96,0-10.07-1.1-14.85c-3.04-13.28-10.14-18.54-23.83-18.54
		c-16.54-0.01-33.1,0.47-49.61-0.18c-9.73-0.38-15.47,4.16-18.69,12.93c-19.57,53.24-39.28,106.43-59.07,159.59
		c-1.3,3.5-3.2,6.94-5.51,9.88c-2.63,3.35-5.66,4.23-10.61,2.56c-5.36-1.81-11.75-1.12-17.64-0.8c-20.3,1.12-40.58,2.57-60.87,3.86
		c-28.88,1.84-57.77,3.67-86.66,5.46c-17.67,1.09-35.35,2.06-53.02,3.14c-30.08,1.83-60.17,3.71-90.25,5.53
		c-17.67,1.07-35.35,2.01-53.03,3.08c-29.85,1.81-59.69,3.69-89.53,5.52c-16,0.98-31.99,1.99-48,2.9
		c-19.11,1.08-38.22,2.22-57.34,3.02c-9.56,0.4-13.84-4.17-14.29-13.75c-1.94-41.48-3.89-82.96-5.96-124.43
		c-1.8-35.99-3.76-71.97-5.7-107.95c-0.3-5.48-1.14-10.94-1.21-16.41c-0.09-7.27,4.27-11.56,11.63-11.36
		c46.7,1.27,93.39,2.66,140.08,4.02c17.24,0.5,34.48,1.11,51.72,1.57c22.03,0.6,44.07,1.1,66.11,1.64c1.68,0.04,3.38,0.14,5.03-0.08
		c6.85-0.88,10.07,2.5,7.84,9.07c-3.59,10.55-7.32,21.09-11.73,31.31c-1.48,3.44-4.7,7.22-8.04,8.56
		c-8.4,3.36-11.96,9.7-15.35,17.44c-3.67,8.37-3.4,15.43,1.26,23.1c1.41,2.33,1.62,6.33,0.68,8.97
		c-8.17,23.01-16.82,45.86-25.07,68.84c-1.58,4.4-2.5,9.17-2.87,13.84c-0.67,8.6,3.61,15.57,11.31,18.15
		c12.37,4.15,25.36,6.88,37.3-2.12c4.06-3.06,7.51-2.66,11.5,0.82c2.55,2.23,6.36,3.72,9.77,4.12c5.68,0.66,11.48,0.19,17.24,0.18
		c8.71-0.01,13.37-3.19,16.54-11.67c10.55-28.19,20.97-56.43,31.59-84.6c1.66-4.41,3.66-8.82,6.31-12.67
		c1.09-1.59,4.87-2.9,6.43-2.19c1.66,0.76,2.86,4.05,2.94,6.28c0.09,2.45-1.2,5.01-2.1,7.44c-10.41,28.25-20.87,56.48-31.3,84.72
		c-2.81,7.62,0.47,12.56,8.46,12.67c6.23,0.09,12.46,0.02,18.7,0.02c9.05-0.01,13.38-2.93,16.58-11.53
		c10.11-27.14,20.27-54.25,30.15-81.47c3.07-8.45,5.78-17.09,7.84-25.83c4.62-19.56-6.55-33.18-26.73-33.19
		c-2.16,0-4.35,0.22-6.47-0.07c-4.97-0.68-8.04-5.58-6.36-10.31c3.5-9.82,6.96-19.67,10.86-29.34c3.35-8.3,7.42-9.78,15.57-6.65
		c1.07,0.41,2.32,0.43,3.49,0.47c32.57,0.98,65.13,1.91,97.7,2.89c59.86,1.8,119.72,3.69,179.58,5.4c28.02,0.8,56.05,1.4,84.08,1.81
		c11.18,0.17,12.89,2.33,8.86,13.24c-6.74,18.26-13.44,36.53-20.36,54.72c-1.25,3.29-3.48,6.21-5.26,9.31
		C843.64,341.15,842.69,340.89,841.74,340.63z M533.25,366.16c-22.04,10.93-38.53,25.07-42.16,50.32
		c-2.82,19.59,10.49,35.47,30.34,35.48c14.62,0.01,29.25,0.33,43.85-0.19c4.37-0.16,9-2.09,12.89-4.3c4.21-2.39,8.3-3.97,11.56-0.02
		c3.6,4.34,7.79,4.77,12.71,4.56c4.79-0.2,9.59-0.04,14.38-0.04c9.91,0,13.83-2.7,17.45-12.34c11.16-29.74,22.13-59.55,33.52-89.2
		c1.78-4.63,3.28-12.53,10.62-9.58c6.95,2.79,2.48,9.11,0.81,13.68c-10.21,28.07-20.63,56.06-30.97,84.08
		c-3.3,8.93-0.15,13.33,9.58,13.36c5.99,0.02,11.98,0.01,17.98,0c7.94-0.02,13.84-4.1,16.7-11.75
		c5.69-15.21,11.55-30.37,16.86-45.71c7.1-20.49,14.67-40.88,20.31-61.78c5.18-19.16-6.63-32.78-26.32-32.78c-16.3,0-32.6,0-48.9,0
		c-9.5,0-13.67,2.89-17.05,11.92c-2.83,7.56-5.24,15.29-8.52,22.65c-1.23,2.76-4.39,4.67-6.66,6.97c-0.83-2.71-2.45-5.46-2.35-8.14
		c0.41-10.66-2.41-19.84-10.92-26.72c-11.86-9.58-25.92-7.93-39.14-5.68c-25.26,4.3-41.56,20.92-53.09,42.7
		c-5.21,9.84-1.99,14.87,9.47,15.01C531.75,358.73,534.34,360.7,533.25,366.16z M273.27,384.18c5.99,0,12-0.28,17.97,0.07
		c7.28,0.43,12.3-3.2,14.65-9.24c4.8-12.33,9.51-24.81,12.72-37.62c4.53-18.09-7.42-35.29-25.15-37.33
		c-31.1-3.58-57.06,7.55-71.45,34.55c-13.25,24.87-21.58,52.49-30.67,79.37c-4.05,11.99-0.02,23.69,10.47,31.99
		c7.83,6.2,17.24,5.62,26.6,6.11c29.41,1.53,57.48-23.08,66.5-47.9c2.17-5.97-1.19-10.73-7.66-10.98c-4.07-0.15-8.2,0.38-12.21-0.11
		c-12.2-1.5-21.7,1.54-26.19,14.13c-0.38,1.06-1.28,2.02-2.14,2.81c-3.14,2.9-7.12,1.92-8.47-2.02c-2.93-8.54,7.3-23.56,16.33-23.81
		C260.8,384.05,267.04,384.19,273.27,384.18z"/>
	<path d="M818.11,411.68c-0.99,4.71-1.75,9.48-3.04,14.1c-1.28,4.56-3.06,8.98-4.69,13.44c-2.86,7.85,0.55,12.66,9.12,12.74
		c5.75,0.05,11.5,0.01,17.25,0.01c9.99,0,13.96-2.68,17.52-12.22c20.6-55.35,41.14-110.72,61.76-166.06
		c1.32-3.54,2.62-7.28,4.84-10.24c3.25-4.33,6.55-7.81,12.71-2.09c3.62,3.36,9.85,5.17,15.02,5.43c27.74,1.4,55.52,2.17,83.28,3.02
		c61.52,1.88,123.04,3.71,184.56,5.48c11.73,0.34,23.48,0.19,35.22,0.47c8.7,0.21,13.26,5.28,13.9,13.82
		c2.16,28.74,4.61,57.47,6.88,86.2c1.56,19.71,3.09,39.43,4.45,59.16c0.47,6.81-4.78,12.26-11.67,12.64
		c-35.82,1.98-71.65,3.81-107.47,5.95c-27.21,1.63-54.43,3.3-81.57,5.75c-6.86,0.62-13.47,4.19-20.16,6.51
		c-12.72,4.4-26.1,5.86-38.62,1.71c-16.26-5.39-31.69-4.54-47.5,0.43c-2.42,0.76-5.04,1.2-7.58,1.21
		c-18.21,0.1-36.45-0.58-54.63,0.2c-30.34,1.29-60.64,3.48-90.95,5.27c-18.15,1.07-36.29,2.21-54.45,3.09
		c-8.26,0.4-12.99,3.44-16.05,11.43c-3.22,8.4-6.25,16.86-9.49,25.25c-2.74,7.08-7.55,11.19-15.66,10.8
		c-5.5-0.26-11.15-0.78-16.5,0.13c-7.28,1.24-10.9-3.53-14.87-7.66c-0.71-0.74,0.46-5.03,1.68-5.55c4.43-1.88,9.2-3.78,13.92-3.99
		c12.08-0.55,15.25-2.4,19.45-13.67c3.8-10.22,7.65-20.42,11.47-30.63c3.62-9.67,6.75-12.5,16.85-11.69
		c25.05,2.02,40.6-11.94,53.78-30.42c2.21-3.11,4.54-6.14,6.91-9.12c0.54-0.68,1.5-1.05,2.26-1.56
		C816.73,411.22,817.42,411.45,818.11,411.68z M1007.67,340.89c-0.65-0.34-1.3-0.68-1.95-1.02c0-1.99-0.45-4.11,0.08-5.96
		c2.08-7.3,4.38-14.55,6.77-21.76c2.44-7.34-0.73-12.07-8.49-12.19c-5.75-0.09-11.54,0.42-17.24-0.11
		c-10.42-0.97-15.69,4.04-19.06,13.3c-10.37,28.51-20.96,56.93-31.63,85.33c-1.48,3.94-3.58,7.76-6.02,11.18
		c-0.91,1.28-4.19,2.26-5.42,1.6c-1.66-0.9-3.36-3.54-3.31-5.39c0.08-3.22,1.25-6.49,2.38-9.59c10.39-28.24,20.9-56.44,31.31-84.68
		c2.37-6.43-0.95-11.43-7.74-11.62c-6.7-0.19-13.42-0.05-20.12-0.04c-8.57,0.01-13.94,3.63-16.87,11.5
		c-10.41,27.97-21.25,55.79-30.91,84.01c-3.64,10.63-5.61,22.13-6.33,33.37c-0.89,13.71,9.53,23.12,23.29,23.14
		c17.49,0.02,34.98,0.01,52.47,0c8.41,0,12.99-3.19,16.09-11.25c3.4-8.84,6.58-17.77,10.22-26.52c0.79-1.89,3.13-3.13,4.76-4.68
		c0.88,1.94,2.14,3.81,2.53,5.84c0.48,2.55,0.12,5.24,0.33,7.86c1.17,14.54,8.64,24.31,21.92,27.37
		c38.94,8.95,74.13-16.65,84.35-51.85c3.75-12.92-0.75-24.14-11.81-31.64c-1.77-1.2-2.65-3.72-3.94-5.63
		c2.26-1.38,4.4-3.66,6.79-3.96c4.95-0.62,10.04-0.24,15.07-0.18c6.92,0.09,11.04-3.84,13.47-9.69c1.35-3.24,2.11-6.78,2.79-10.25
		c3.92-19.82-5.95-35.72-25.39-38.39c-26.01-3.57-47.86,5.33-64.99,25.26C1016.42,329.66,1012.12,335.34,1007.67,340.89z
		 M1155.93,314.18c2.72,7.1,4.2,14.15,15.33,11.82c7.31-1.53,11.36-2.77,11.79-10.62c0.44-8.06-1.18-9.5-10.66-9.41
		c-2.38,0.02-4.77-0.03-7.14,0.09c-7.05,0.33-14.11,0.53-21.12,1.24c-1.57,0.16-2.95,2.19-5.86,4.51
		C1145.5,312.78,1150.7,313.48,1155.93,314.18z"/>
	<path d="M406.98,329.13c-0.83,6.52-0.59,11.97-2.28,16.75c-8.31,23.44-17.01,46.75-25.95,69.96c-1.12,2.89-4.2,5.99-7.04,6.87
		c-1.44,0.45-4.58-3.66-6.56-6.04c-4.82-5.8-3.69-11.89-1.09-18.41c5.78-14.53,12.23-28.95,16.21-43.99
		C383.88,340.58,393.73,335.27,406.98,329.13z"/>
	<path d="M419.09,247.17c1.77,0.14,3.94,0.1,6.02,0.51c11,2.18,13.48,6.65,9.64,17.2c-4.13,11.34-8.01,22.77-12.6,33.92
		c-1.29,3.14-4.65,5.43-7.06,8.1c-2.6-2.39-5.53-4.51-7.72-7.23c-3.95-4.91-3.34-10.08-0.83-15.77c4.4-9.94,8.13-20.18,11.96-30.37
		C419.16,251.82,418.89,249.74,419.09,247.17z"/>
	<path d="M793.1,345.8c-1.71,4.73-3.11,8.73-4.59,12.7c-5.44,14.64-10.71,29.34-16.49,43.84c-1.71,4.29-3.42,11.18-9.81,8.83
		c-6.51-2.4-3.2-8.46-1.54-12.97c6.04-16.43,12.25-32.81,18.52-49.16c0.92-2.4,2.13-4.98,3.97-6.63c1.46-1.31,4.41-2.27,6.1-1.68
		C790.93,341.34,791.86,344.05,793.1,345.8z"/>
	<path d="M574.13,347c-3.83,4.9-7.07,9.66-11.08,13.66c-0.89,0.89-5.02-0.3-6.63-1.7c-1.02-0.89-0.8-4.25,0.01-5.96
		c1.71-3.61,3.84-7.15,6.45-10.15c1.25-1.43,4.25-2.52,5.97-2.04C570.57,341.3,571.66,343.94,574.13,347z"/>
	<path d="M538.47,408.04c0.01-8.26,6.12-17.5,10.14-16.48c2.1,0.53,4.7,3.52,5.02,5.69c0.75,5.11-6.78,15.31-10.21,14.42
		C541.2,411.1,539.44,408.79,538.47,408.04z"/>
	<path d="M274.68,345.99c-4.85,4.33-8.07,7.2-11.29,10.07c-1.64-2.05-5.09-4.96-4.6-5.99c1.78-3.7,4.71-6.96,7.75-9.82
		C266.9,339.91,270.57,343.06,274.68,345.99z"/>
	<path d="M984.79,396.07c0.17-2.85-0.36-7.05,0.8-10.72c2.91-9.23,6.38-18.3,10.11-27.23c0.81-1.93,3.65-3.01,5.56-4.48
		c0.95,1.95,2.67,3.89,2.71,5.85c0.17,10,4.23,17.79,11.98,24.01c1.48,1.19,3.05,4.05,2.57,5.44c-0.61,1.76-3.15,3.73-5.09,4.01
		C1004.35,394.25,995.19,395,984.79,396.07z"/>
	<path d="M1064.06,347.19c0.18,1.4-0.05,3.06,0.63,4.14c1.97,3.09,3.56,6.4-0.87,8.08c-3.37,1.28-7.86,2.28-10.91,1.06
		c-4.02-1.6-5.04-5.95-2.63-10.29c1.03-1.86,1.39-4.26,2.8-5.71c2.13-2.2,4.9-3.79,7.39-5.64c1.67,2.49,3.35,4.98,5.02,7.47
		C1065.01,346.6,1064.54,346.9,1064.06,347.19z"/>
	<path d="M1031.04,402.43c-1.89-4.34-2.49-9.91,4.7-11.49c2.6-0.57,6.77,1,8.59,3.04c3.15,3.51-2.85,17.13-7.6,17.6
		C1031.05,412.14,1030.1,408.31,1031.04,402.43z"/>
</g>
</svg>
